<svg xmlns="http://www.w3.org/2000/svg" width="22.908" height="24" viewBox="0 0 22.908 24">
  <path id="iconfinder_00-ELASTOFONT-STORE-READY_user_2703063" d="M16.8,14.46a7.281,7.281,0,1,0-7.607,0c-4.5,1.007-7.651,3.758-7.651,7.088C1.546,24.273,8.746,25,13,25s11.454-.727,11.454-3.452C24.454,18.219,21.3,15.468,16.8,14.46ZM7.219,8.272A5.781,5.781,0,1,1,13,14.043,5.783,5.783,0,0,1,7.219,8.272ZM13,23.5c-6.115,0-9.775-1.29-9.954-1.957,0-3.309,4.468-6,9.954-6s9.948,2.691,9.954,6C22.78,22.209,19.119,23.5,13,23.5Z" transform="translate(-1.546 -1)" fill="#fff"/>
</svg>
